<mxfile host="Electron" modified="2024-06-25T16:11:13.752Z" agent="Mozilla/5.0 (X11; Linux x86_64) AppleWebKit/537.36 (KHTML, like Gecko) draw.io/21.6.5 Chrome/114.0.5735.243 Electron/25.3.1 Safari/537.36" etag="B6-P8pOW47CPqGQ9R6tY" version="21.6.5" type="device">
  <diagram name="Page-1" id="QDsX4qvfjTHwD511eLQT">
    <mxGraphModel dx="722" dy="2536" grid="1" gridSize="10" guides="1" tooltips="1" connect="1" arrows="1" fold="1" page="1" pageScale="1" pageWidth="1060" pageHeight="2000" math="0" shadow="0">
      <root>
        <mxCell id="0" />
        <mxCell id="1" parent="0" />
        <mxCell id="d0JmIQ4-yOK_lys6KXd0-24" value="" style="rounded=1;whiteSpace=wrap;html=1;opacity=50;arcSize=13;fillColor=#dae8fc;strokeColor=#6c8ebf;" vertex="1" parent="1">
          <mxGeometry x="390" y="-1780" width="100" height="280" as="geometry" />
        </mxCell>
        <mxCell id="d0JmIQ4-yOK_lys6KXd0-2" value="" style="rounded=1;whiteSpace=wrap;html=1;opacity=50;arcSize=50;fillColor=#ffe6cc;strokeColor=#d79b00;" vertex="1" parent="1">
          <mxGeometry x="180" y="-1750" width="100" height="37.5" as="geometry" />
        </mxCell>
        <mxCell id="d0JmIQ4-yOK_lys6KXd0-1" value="USDC" style="text;html=1;strokeColor=none;fillColor=none;align=center;verticalAlign=middle;whiteSpace=wrap;rounded=0;fontSize=17;fontStyle=1" vertex="1" parent="1">
          <mxGeometry x="190" y="-1750" width="80" height="40" as="geometry" />
        </mxCell>
        <mxCell id="d0JmIQ4-yOK_lys6KXd0-7" value="" style="rounded=1;whiteSpace=wrap;html=1;opacity=50;arcSize=50;fillColor=#ffe6cc;strokeColor=#d79b00;" vertex="1" parent="1">
          <mxGeometry x="180" y="-1690" width="100" height="37.5" as="geometry" />
        </mxCell>
        <mxCell id="d0JmIQ4-yOK_lys6KXd0-8" value="DAI" style="text;html=1;strokeColor=none;fillColor=none;align=center;verticalAlign=middle;whiteSpace=wrap;rounded=0;fontSize=17;fontStyle=1" vertex="1" parent="1">
          <mxGeometry x="190" y="-1690" width="80" height="40" as="geometry" />
        </mxCell>
        <mxCell id="d0JmIQ4-yOK_lys6KXd0-9" value="" style="rounded=1;whiteSpace=wrap;html=1;opacity=50;arcSize=50;fillColor=#ffe6cc;strokeColor=#d79b00;" vertex="1" parent="1">
          <mxGeometry x="180" y="-1630" width="100" height="37.5" as="geometry" />
        </mxCell>
        <mxCell id="d0JmIQ4-yOK_lys6KXd0-10" value="USDC / WETH LP Tokens" style="text;html=1;strokeColor=none;fillColor=none;align=center;verticalAlign=middle;whiteSpace=wrap;rounded=0;fontSize=12;fontStyle=1" vertex="1" parent="1">
          <mxGeometry x="185" y="-1630" width="90" height="40" as="geometry" />
        </mxCell>
        <mxCell id="d0JmIQ4-yOK_lys6KXd0-11" value="" style="rounded=1;whiteSpace=wrap;html=1;opacity=50;arcSize=50;fillColor=#ffe6cc;strokeColor=#d79b00;" vertex="1" parent="1">
          <mxGeometry x="180" y="-1570" width="100" height="37.5" as="geometry" />
        </mxCell>
        <mxCell id="d0JmIQ4-yOK_lys6KXd0-12" value="..." style="text;html=1;strokeColor=none;fillColor=none;align=center;verticalAlign=middle;whiteSpace=wrap;rounded=0;fontSize=12;fontStyle=1" vertex="1" parent="1">
          <mxGeometry x="185" y="-1570" width="90" height="40" as="geometry" />
        </mxCell>
        <mxCell id="d0JmIQ4-yOK_lys6KXd0-13" value="" style="endArrow=classic;html=1;rounded=0;strokeWidth=3;fillColor=#ffe6cc;strokeColor=#d79b00;" edge="1" parent="1">
          <mxGeometry width="50" height="50" relative="1" as="geometry">
            <mxPoint x="280" y="-1730" as="sourcePoint" />
            <mxPoint x="380" y="-1730" as="targetPoint" />
          </mxGeometry>
        </mxCell>
        <mxCell id="d0JmIQ4-yOK_lys6KXd0-14" value="" style="endArrow=classic;html=1;rounded=0;startArrow=none;startFill=0;endSize=6;startSize=13;fillColor=#d5e8d4;strokeColor=#82b366;strokeWidth=3;" edge="1" parent="1">
          <mxGeometry width="50" height="50" relative="1" as="geometry">
            <mxPoint x="500" y="-1730" as="sourcePoint" />
            <mxPoint x="580" y="-1729.8" as="targetPoint" />
          </mxGeometry>
        </mxCell>
        <mxCell id="d0JmIQ4-yOK_lys6KXd0-25" value="Cowswap" style="text;html=1;strokeColor=none;fillColor=none;align=center;verticalAlign=middle;whiteSpace=wrap;rounded=0;fontSize=17;fontStyle=1" vertex="1" parent="1">
          <mxGeometry x="408.42" y="-1530" width="63.16" height="30" as="geometry" />
        </mxCell>
        <mxCell id="d0JmIQ4-yOK_lys6KXd0-36" value="" style="rounded=1;whiteSpace=wrap;html=1;opacity=50;arcSize=50;fillColor=#d5e8d4;strokeColor=#82b366;" vertex="1" parent="1">
          <mxGeometry x="590" y="-1750" width="100" height="37.5" as="geometry" />
        </mxCell>
        <mxCell id="d0JmIQ4-yOK_lys6KXd0-37" value="crvUSD" style="text;html=1;strokeColor=none;fillColor=none;align=center;verticalAlign=middle;whiteSpace=wrap;rounded=0;fontSize=17;fontStyle=1" vertex="1" parent="1">
          <mxGeometry x="600" y="-1750" width="80" height="40" as="geometry" />
        </mxCell>
        <mxCell id="d0JmIQ4-yOK_lys6KXd0-39" value="" style="endArrow=oval;dashed=1;html=1;rounded=0;startArrow=oval;startFill=0;endFill=0;strokeWidth=3;endSize=8;startSize=8;fillColor=#dae8fc;strokeColor=#6c8ebf;" edge="1" parent="1">
          <mxGeometry width="50" height="50" relative="1" as="geometry">
            <mxPoint x="390" y="-1730" as="sourcePoint" />
            <mxPoint x="490" y="-1730" as="targetPoint" />
          </mxGeometry>
        </mxCell>
        <mxCell id="d0JmIQ4-yOK_lys6KXd0-40" value="" style="endArrow=classic;html=1;rounded=0;strokeWidth=3;fillColor=#ffe6cc;strokeColor=#d79b00;" edge="1" parent="1">
          <mxGeometry width="50" height="50" relative="1" as="geometry">
            <mxPoint x="280" y="-1671.57" as="sourcePoint" />
            <mxPoint x="380" y="-1671.57" as="targetPoint" />
          </mxGeometry>
        </mxCell>
        <mxCell id="d0JmIQ4-yOK_lys6KXd0-41" value="" style="endArrow=classic;html=1;rounded=0;startArrow=none;startFill=0;endSize=6;startSize=13;fillColor=#d5e8d4;strokeColor=#82b366;strokeWidth=3;" edge="1" parent="1">
          <mxGeometry width="50" height="50" relative="1" as="geometry">
            <mxPoint x="500" y="-1671.57" as="sourcePoint" />
            <mxPoint x="580" y="-1671.37" as="targetPoint" />
          </mxGeometry>
        </mxCell>
        <mxCell id="d0JmIQ4-yOK_lys6KXd0-42" value="" style="endArrow=oval;dashed=1;html=1;rounded=0;startArrow=oval;startFill=0;endFill=0;strokeWidth=3;endSize=8;startSize=8;fillColor=#dae8fc;strokeColor=#6c8ebf;" edge="1" parent="1">
          <mxGeometry width="50" height="50" relative="1" as="geometry">
            <mxPoint x="390" y="-1671.57" as="sourcePoint" />
            <mxPoint x="490" y="-1671.57" as="targetPoint" />
          </mxGeometry>
        </mxCell>
        <mxCell id="d0JmIQ4-yOK_lys6KXd0-43" value="" style="endArrow=classic;html=1;rounded=0;strokeWidth=3;fillColor=#ffe6cc;strokeColor=#d79b00;" edge="1" parent="1">
          <mxGeometry width="50" height="50" relative="1" as="geometry">
            <mxPoint x="280" y="-1610.32" as="sourcePoint" />
            <mxPoint x="380" y="-1610.32" as="targetPoint" />
          </mxGeometry>
        </mxCell>
        <mxCell id="d0JmIQ4-yOK_lys6KXd0-44" value="" style="endArrow=classic;html=1;rounded=0;startArrow=none;startFill=0;endSize=6;startSize=13;fillColor=#d5e8d4;strokeColor=#82b366;strokeWidth=3;" edge="1" parent="1">
          <mxGeometry width="50" height="50" relative="1" as="geometry">
            <mxPoint x="500" y="-1610.32" as="sourcePoint" />
            <mxPoint x="580" y="-1610.12" as="targetPoint" />
          </mxGeometry>
        </mxCell>
        <mxCell id="d0JmIQ4-yOK_lys6KXd0-45" value="" style="endArrow=oval;dashed=1;html=1;rounded=0;startArrow=oval;startFill=0;endFill=0;strokeWidth=3;endSize=8;startSize=8;fillColor=#dae8fc;strokeColor=#6c8ebf;" edge="1" parent="1">
          <mxGeometry width="50" height="50" relative="1" as="geometry">
            <mxPoint x="390" y="-1610.32" as="sourcePoint" />
            <mxPoint x="490" y="-1610.32" as="targetPoint" />
          </mxGeometry>
        </mxCell>
        <mxCell id="d0JmIQ4-yOK_lys6KXd0-46" value="" style="endArrow=classic;html=1;rounded=0;strokeWidth=3;fillColor=#ffe6cc;strokeColor=#d79b00;" edge="1" parent="1">
          <mxGeometry width="50" height="50" relative="1" as="geometry">
            <mxPoint x="280" y="-1551.57" as="sourcePoint" />
            <mxPoint x="380" y="-1551.57" as="targetPoint" />
          </mxGeometry>
        </mxCell>
        <mxCell id="d0JmIQ4-yOK_lys6KXd0-47" value="" style="endArrow=classic;html=1;rounded=0;startArrow=none;startFill=0;endSize=6;startSize=13;fillColor=#d5e8d4;strokeColor=#82b366;strokeWidth=3;" edge="1" parent="1">
          <mxGeometry width="50" height="50" relative="1" as="geometry">
            <mxPoint x="500" y="-1551.57" as="sourcePoint" />
            <mxPoint x="580" y="-1551.37" as="targetPoint" />
          </mxGeometry>
        </mxCell>
        <mxCell id="d0JmIQ4-yOK_lys6KXd0-48" value="" style="endArrow=oval;dashed=1;html=1;rounded=0;startArrow=oval;startFill=0;endFill=0;strokeWidth=3;endSize=8;startSize=8;fillColor=#dae8fc;strokeColor=#6c8ebf;" edge="1" parent="1">
          <mxGeometry width="50" height="50" relative="1" as="geometry">
            <mxPoint x="390" y="-1551.57" as="sourcePoint" />
            <mxPoint x="490" y="-1551.57" as="targetPoint" />
          </mxGeometry>
        </mxCell>
        <mxCell id="d0JmIQ4-yOK_lys6KXd0-49" value="" style="rounded=1;whiteSpace=wrap;html=1;opacity=50;arcSize=50;fillColor=#d5e8d4;strokeColor=#82b366;" vertex="1" parent="1">
          <mxGeometry x="590" y="-1691.25" width="100" height="37.5" as="geometry" />
        </mxCell>
        <mxCell id="d0JmIQ4-yOK_lys6KXd0-50" value="crvUSD" style="text;html=1;strokeColor=none;fillColor=none;align=center;verticalAlign=middle;whiteSpace=wrap;rounded=0;fontSize=17;fontStyle=1" vertex="1" parent="1">
          <mxGeometry x="600" y="-1691.25" width="80" height="40" as="geometry" />
        </mxCell>
        <mxCell id="d0JmIQ4-yOK_lys6KXd0-51" value="" style="rounded=1;whiteSpace=wrap;html=1;opacity=50;arcSize=50;fillColor=#d5e8d4;strokeColor=#82b366;" vertex="1" parent="1">
          <mxGeometry x="590" y="-1630" width="100" height="37.5" as="geometry" />
        </mxCell>
        <mxCell id="d0JmIQ4-yOK_lys6KXd0-52" value="crvUSD" style="text;html=1;strokeColor=none;fillColor=none;align=center;verticalAlign=middle;whiteSpace=wrap;rounded=0;fontSize=17;fontStyle=1" vertex="1" parent="1">
          <mxGeometry x="600" y="-1630" width="80" height="40" as="geometry" />
        </mxCell>
        <mxCell id="d0JmIQ4-yOK_lys6KXd0-53" value="" style="rounded=1;whiteSpace=wrap;html=1;opacity=50;arcSize=50;fillColor=#d5e8d4;strokeColor=#82b366;" vertex="1" parent="1">
          <mxGeometry x="590" y="-1571.25" width="100" height="37.5" as="geometry" />
        </mxCell>
        <mxCell id="d0JmIQ4-yOK_lys6KXd0-54" value="crvUSD" style="text;html=1;strokeColor=none;fillColor=none;align=center;verticalAlign=middle;whiteSpace=wrap;rounded=0;fontSize=17;fontStyle=1" vertex="1" parent="1">
          <mxGeometry x="600" y="-1571.25" width="80" height="40" as="geometry" />
        </mxCell>
      </root>
    </mxGraphModel>
  </diagram>
</mxfile>
